<?xml version="1.0" encoding="UTF-8"?>
<!DOCTYPE svg PUBLIC "-//W3C//DTD SVG 1.1//EN" "http://www.w3.org/Graphics/SVG/1.1/DTD/svg11.dtd">
<svg xmlns="http://www.w3.org/2000/svg" version="1.1" width="500px" height="500px" style="shape-rendering:geometricPrecision; text-rendering:geometricPrecision; image-rendering:optimizeQuality; fill-rule:evenodd; clip-rule:evenodd" xmlns:xlink="http://www.w3.org/1999/xlink">
<g><path style="opacity:0.322" fill="#fef1c1" d="M 112.5,172.5 C 112.557,173.609 112.89,174.609 113.5,175.5C 112.833,175.5 112.167,175.5 111.5,175.5C 111.631,174.761 111.464,174.094 111,173.5C 108.261,170.882 105.427,168.382 102.5,166C 99.9234,164.75 97.2567,164.416 94.5,165C 93.6634,166.011 93.33,167.178 93.5,168.5C 92.1667,169.833 90.8333,171.167 89.5,172.5C 87.7868,173.635 87.1201,175.302 87.5,177.5C 84.3915,177.264 81.3915,177.597 78.5,178.5C 80.3052,176.803 82.6385,175.97 85.5,176C 90.0004,162.296 98.0004,159.796 109.5,168.5C 110.934,169.588 111.934,170.922 112.5,172.5 Z"/></g>
<g><path style="opacity:1" fill="#f8ce50" d="M 111.5,175.5 C 110.883,175.389 110.383,175.056 110,174.5C 109.506,176.134 109.34,177.801 109.5,179.5C 107.901,179.768 106.568,179.434 105.5,178.5C 108.907,178.875 109.407,177.875 107,175.5C 104.478,172.331 101.312,170.331 97.5,169.5C 97.4551,172.077 98.4551,174.077 100.5,175.5C 99.4168,175.461 98.4168,175.127 97.5,174.5C 96.4571,172.151 95.1238,170.151 93.5,168.5C 93.33,167.178 93.6634,166.011 94.5,165C 97.2567,164.416 99.9234,164.75 102.5,166C 105.427,168.382 108.261,170.882 111,173.5C 111.464,174.094 111.631,174.761 111.5,175.5 Z"/></g>
<g><path style="opacity:0.102" fill="#fff1b7" d="M 105.5,178.5 C 103.589,177.925 101.922,176.925 100.5,175.5C 98.4551,174.077 97.4551,172.077 97.5,169.5C 101.312,170.331 104.478,172.331 107,175.5C 109.407,177.875 108.907,178.875 105.5,178.5 Z"/></g>
<g><path style="opacity:0.859" fill="#fbdd80" d="M 113.5,175.5 C 115.914,176.911 117.581,178.911 118.5,181.5C 117.833,181.167 117.167,180.833 116.5,180.5C 115.075,179.078 114.075,177.411 113.5,175.5 Z"/></g>
<g><path style="opacity:0.698" fill="#fce08c" d="M 89.5,172.5 C 89.5,174.833 89.5,177.167 89.5,179.5C 84.9402,177.488 80.9402,178.155 77.5,181.5C 77.5569,180.391 77.8902,179.391 78.5,178.5C 81.3915,177.597 84.3915,177.264 87.5,177.5C 87.1201,175.302 87.7868,173.635 89.5,172.5 Z"/></g>
<g><path style="opacity:1" fill="#fbc41c" d="M 93.5,168.5 C 95.1238,170.151 96.4571,172.151 97.5,174.5C 98.4168,175.127 99.4168,175.461 100.5,175.5C 100.628,177.09 101.295,178.423 102.5,179.5C 105.503,180.085 108.503,180.752 111.5,181.5C 111.137,182.183 110.804,182.85 110.5,183.5C 107.302,184.59 104.468,186.257 102,188.5C 100.779,187.728 99.779,186.728 99,185.5C 98.3109,186.357 97.4776,187.023 96.5,187.5C 94.3737,186.63 92.3737,185.63 90.5,184.5C 88.2157,183.323 87.8823,181.656 89.5,179.5C 89.5,177.167 89.5,174.833 89.5,172.5C 90.8333,171.167 92.1667,169.833 93.5,168.5 Z"/></g>
<g><path style="opacity:1" fill="#f7cb42" d="M 89.5,179.5 C 87.8823,181.656 88.2157,183.323 90.5,184.5C 91.1098,185.391 91.4431,186.391 91.5,187.5C 91.1667,187.5 90.8333,187.5 90.5,187.5C 88.8413,184.167 86.1746,182.5 82.5,182.5C 83.6863,186.357 86.0197,189.357 89.5,191.5C 90.287,193.104 91.6203,193.771 93.5,193.5C 93.5,192.167 93.5,190.833 93.5,189.5C 93.8333,189.5 94.1667,189.5 94.5,189.5C 95.3007,191.042 95.634,192.708 95.5,194.5C 91.995,195.124 89.1617,194.124 87,191.5C 86.5,191.833 86,192.167 85.5,192.5C 87.297,193.695 88.297,195.362 88.5,197.5C 87.1667,196.5 85.8333,195.5 84.5,194.5C 82.9652,193.212 81.2985,193.212 79.5,194.5C 74.8288,197.844 70.4955,201.51 66.5,205.5C 65.391,205.557 64.391,205.89 63.5,206.5C 63.1583,205.662 62.4916,205.328 61.5,205.5C 67.1024,201.073 72.6024,196.407 78,191.5C 78.7891,189.288 78.6225,187.288 77.5,185.5C 77.5,184.167 77.5,182.833 77.5,181.5C 80.9402,178.155 84.9402,177.488 89.5,179.5 Z"/></g>
<g><path style="opacity:0.212" fill="#fff0b4" d="M 90.5,187.5 C 90.5394,188.583 90.8728,189.583 91.5,190.5C 91.0431,191.298 90.3764,191.631 89.5,191.5C 86.0197,189.357 83.6863,186.357 82.5,182.5C 86.1746,182.5 88.8413,184.167 90.5,187.5 Z"/></g>
<g><path style="opacity:1" fill="#fcc21e" d="M 110.5,183.5 C 111.434,184.568 111.768,185.901 111.5,187.5C 110.022,187.238 108.689,187.571 107.5,188.5C 108.025,189.192 108.692,189.692 109.5,190C 109.167,190.333 108.833,190.667 108.5,191C 109.5,191.333 110.5,191.667 111.5,192C 109.866,192.494 108.199,192.66 106.5,192.5C 106.44,191.957 106.107,191.624 105.5,191.5C 104.378,192.63 103.044,193.297 101.5,193.5C 100.829,192.153 100.829,190.986 101.5,190C 99.1902,189.503 96.8568,189.337 94.5,189.5C 94.1667,189.5 93.8333,189.5 93.5,189.5C 92.5,189.167 91.8333,188.5 91.5,187.5C 91.4431,186.391 91.1098,185.391 90.5,184.5C 92.3737,185.63 94.3737,186.63 96.5,187.5C 97.4776,187.023 98.3109,186.357 99,185.5C 99.779,186.728 100.779,187.728 102,188.5C 104.468,186.257 107.302,184.59 110.5,183.5 Z"/></g>
<g><path style="opacity:1" fill="#f9c424" d="M 111.5,175.5 C 112.167,175.5 112.833,175.5 113.5,175.5C 114.075,177.411 115.075,179.078 116.5,180.5C 116.5,181.167 116.5,181.833 116.5,182.5C 117.092,187.099 115.425,188.766 111.5,187.5C 111.768,185.901 111.434,184.568 110.5,183.5C 110.804,182.85 111.137,182.183 111.5,181.5C 108.503,180.752 105.503,180.085 102.5,179.5C 101.295,178.423 100.628,177.09 100.5,175.5C 101.922,176.925 103.589,177.925 105.5,178.5C 106.568,179.434 107.901,179.768 109.5,179.5C 109.34,177.801 109.506,176.134 110,174.5C 110.383,175.056 110.883,175.389 111.5,175.5 Z"/></g>
<g><path style="opacity:1" fill="#fac418" d="M 116.5,182.5 C 117.371,185.491 118.371,188.491 119.5,191.5C 117.394,191.679 115.728,192.679 114.5,194.5C 111.473,195.249 108.473,195.916 105.5,196.5C 105.232,194.901 105.566,193.568 106.5,192.5C 108.199,192.66 109.866,192.494 111.5,192C 110.5,191.667 109.5,191.333 108.5,191C 108.833,190.667 109.167,190.333 109.5,190C 108.692,189.692 108.025,189.192 107.5,188.5C 108.689,187.571 110.022,187.238 111.5,187.5C 115.425,188.766 117.092,187.099 116.5,182.5 Z"/></g>
<g><path style="opacity:1" fill="#f6ca37" d="M 116.5,180.5 C 117.167,180.833 117.833,181.167 118.5,181.5C 122.173,188.183 120.839,193.517 114.5,197.5C 114.5,198.167 114.167,198.5 113.5,198.5C 111.833,198.5 110.167,198.5 108.5,198.5C 110.477,202.179 109.81,205.179 106.5,207.5C 106.276,203.821 105.942,200.154 105.5,196.5C 108.473,195.916 111.473,195.249 114.5,194.5C 115.728,192.679 117.394,191.679 119.5,191.5C 118.371,188.491 117.371,185.491 116.5,182.5C 116.5,181.833 116.5,181.167 116.5,180.5 Z"/></g>
<g><path style="opacity:1" fill="#f9d76d" d="M 118.5,181.5 C 121.942,184.328 123.109,187.995 122,192.5C 120.143,195.2 117.643,196.866 114.5,197.5C 120.839,193.517 122.173,188.183 118.5,181.5 Z"/></g>
<g><path style="opacity:0.2" fill="#fef6cc" d="M 78.5,178.5 C 77.8902,179.391 77.5569,180.391 77.5,181.5C 77.5,182.833 77.5,184.167 77.5,185.5C 77.6602,187.199 77.4935,188.866 77,190.5C 69.4792,196.498 62.3126,202.831 55.5,209.5C 52.5178,211.474 49.5178,213.474 46.5,215.5C 55.9072,206.515 65.7406,197.848 76,189.5C 75.9064,185.367 76.7397,181.701 78.5,178.5 Z"/></g>
<g><path style="opacity:0.414" fill="#fee284" d="M 90.5,187.5 C 90.8333,187.5 91.1667,187.5 91.5,187.5C 91.8333,188.5 92.5,189.167 93.5,189.5C 93.5,190.833 93.5,192.167 93.5,193.5C 91.6203,193.771 90.287,193.104 89.5,191.5C 90.3764,191.631 91.0431,191.298 91.5,190.5C 90.8728,189.583 90.5394,188.583 90.5,187.5 Z"/></g>
<g><path style="opacity:0.855" fill="#fadb7f" d="M 77.5,185.5 C 78.6225,187.288 78.7891,189.288 78,191.5C 72.6024,196.407 67.1024,201.073 61.5,205.5C 59.7541,207.252 57.7541,208.585 55.5,209.5C 62.3126,202.831 69.4792,196.498 77,190.5C 77.4935,188.866 77.6602,187.199 77.5,185.5 Z"/></g>
<g><path style="opacity:0.839" fill="#f9e3aa" d="M 445.5,197.5 C 441.5,197.5 437.5,197.5 433.5,197.5C 437.479,194.959 441.479,194.959 445.5,197.5 Z"/></g>
<g><path style="opacity:1" fill="#fac51b" d="M 94.5,189.5 C 96.8568,189.337 99.1902,189.503 101.5,190C 100.829,190.986 100.829,192.153 101.5,193.5C 102.211,197.281 101.045,200.281 98,202.5C 97.51,203.793 97.3433,205.127 97.5,206.5C 96.5041,206.414 95.6708,206.748 95,207.5C 94.6667,205.167 94.3333,202.833 94,200.5C 93.3292,199.748 92.4959,199.414 91.5,199.5C 90.8333,199.5 90.1667,199.5 89.5,199.5C 89.1667,198.833 88.8333,198.167 88.5,197.5C 88.297,195.362 87.297,193.695 85.5,192.5C 86,192.167 86.5,191.833 87,191.5C 89.1617,194.124 91.995,195.124 95.5,194.5C 95.634,192.708 95.3007,191.042 94.5,189.5 Z"/></g>
<g><path style="opacity:1" fill="#f0ca56" d="M 377.5,198.5 C 378.919,197.549 380.585,197.216 382.5,197.5C 383.993,198.312 384.66,199.645 384.5,201.5C 384.66,203.355 383.993,204.688 382.5,205.5C 380.585,205.784 378.919,205.451 377.5,204.5C 379.167,204.5 380.833,204.5 382.5,204.5C 382.5,202.5 382.5,200.5 382.5,198.5C 380.833,198.5 379.167,198.5 377.5,198.5 Z"/></g>
<g><path style="opacity:0.188" fill="#fff6d8" d="M 112.5,172.5 C 121.142,177.327 124.642,184.66 123,194.5C 119.636,197.205 116.303,199.872 113,202.5C 112.329,201.748 111.496,201.414 110.5,201.5C 111.1,200.1 112.1,199.1 113.5,198.5C 114.167,198.5 114.5,198.167 114.5,197.5C 117.643,196.866 120.143,195.2 122,192.5C 123.109,187.995 121.942,184.328 118.5,181.5C 117.581,178.911 115.914,176.911 113.5,175.5C 112.89,174.609 112.557,173.609 112.5,172.5 Z"/></g>
<g><path style="opacity:0.663" fill="#fbe3a1" d="M 432.5,197.5 C 431.5,199.167 430.167,200.5 428.5,201.5C 428.833,199.167 430.167,197.833 432.5,197.5 Z"/></g>
<g><path style="opacity:0.945" fill="#f4e095" d="M 445.5,197.5 C 446.376,197.369 447.043,197.702 447.5,198.5C 447.006,200.026 446.339,201.359 445.5,202.5C 445.5,200.833 445.5,199.167 445.5,197.5 Z"/></g>
<g><path style="opacity:0.847" fill="#fbd87d" d="M 336.5,201.5 C 330.862,200.78 325.196,200.447 319.5,200.5C 317.167,200.5 314.833,200.5 312.5,200.5C 312.5,200.167 312.5,199.833 312.5,199.5C 319.859,198.076 327.192,198.243 334.5,200C 335.416,200.278 336.082,200.778 336.5,201.5 Z"/></g>
<g><path style="opacity:0.035" fill="#fff6d2" d="M 80.5,195.5 C 81.5676,194.566 82.901,194.232 84.5,194.5C 85.8333,195.5 87.1667,196.5 88.5,197.5C 88.8333,198.167 89.1667,198.833 89.5,199.5C 91.2484,201.16 91.7484,203.16 91,205.5C 87.4886,208.164 84.9886,211.498 83.5,215.5C 80.126,217.874 77.4593,220.874 75.5,224.5C 74.5275,226.139 73.1942,227.473 71.5,228.5C 71.5,227.833 71.5,227.167 71.5,226.5C 76.6923,219.125 82.5256,212.125 89,205.5C 89.7805,204.056 89.6139,202.723 88.5,201.5C 86.0411,199.016 83.3745,197.016 80.5,195.5 Z"/></g>
<g><path style="opacity:1" fill="#f4d87f" d="M 382.5,197.5 C 380.585,197.216 378.919,197.549 377.5,198.5C 376.167,200.5 376.167,202.5 377.5,204.5C 378.919,205.451 380.585,205.784 382.5,205.5C 379.879,207.999 377.379,207.665 375,204.5C 373.54,200.202 374.874,197.202 379,195.5C 380.302,196.085 381.469,196.751 382.5,197.5 Z"/></g>
<g><path style="opacity:1" fill="#fac21d" d="M 377.5,198.5 C 379.167,198.5 380.833,198.5 382.5,198.5C 382.5,200.5 382.5,202.5 382.5,204.5C 380.833,204.5 379.167,204.5 377.5,204.5C 376.167,202.5 376.167,200.5 377.5,198.5 Z"/></g>
<g><path style="opacity:1" fill="#f1c953" d="M 432.5,197.5 C 432.833,197.5 433.167,197.5 433.5,197.5C 437.5,197.5 441.5,197.5 445.5,197.5C 445.5,199.167 445.5,200.833 445.5,202.5C 445.5,202.833 445.5,203.167 445.5,203.5C 443.901,203.768 442.568,203.434 441.5,202.5C 442.5,202.5 443.5,202.5 444.5,202.5C 444.5,201.167 444.5,199.833 444.5,198.5C 440.818,198.335 437.152,198.501 433.5,199C 431.959,200.371 430.625,201.871 429.5,203.5C 428.691,205.292 428.191,207.292 428,209.5C 426.989,210.337 425.822,210.67 424.5,210.5C 424.259,212.886 424.925,214.886 426.5,216.5C 425.5,216.5 424.5,216.5 423.5,216.5C 423.187,213.753 423.52,211.086 424.5,208.5C 425.425,209.641 426.259,209.641 427,208.5C 427.186,205.964 427.686,203.631 428.5,201.5C 430.167,200.5 431.5,199.167 432.5,197.5 Z"/></g>
<g><path style="opacity:0.306" fill="#fef1bb" d="M 84.5,194.5 C 82.901,194.232 81.5676,194.566 80.5,195.5C 77.1225,200.204 72.7892,203.871 67.5,206.5C 67.1667,206.5 66.8333,206.5 66.5,206.5C 66.5,206.167 66.5,205.833 66.5,205.5C 70.4955,201.51 74.8288,197.844 79.5,194.5C 81.2985,193.212 82.9652,193.212 84.5,194.5 Z"/></g>
<g><path style="opacity:1" fill="#fbc31b" d="M 106.5,192.5 C 105.566,193.568 105.232,194.901 105.5,196.5C 105.942,200.154 106.276,203.821 106.5,207.5C 103.518,207.037 100.518,206.704 97.5,206.5C 97.3433,205.127 97.51,203.793 98,202.5C 101.045,200.281 102.211,197.281 101.5,193.5C 103.044,193.297 104.378,192.63 105.5,191.5C 106.107,191.624 106.44,191.957 106.5,192.5 Z"/></g>
<g><path style="opacity:0.4" fill="#fde7ab" d="M 113.5,198.5 C 112.1,199.1 111.1,200.1 110.5,201.5C 110.802,204.059 110.468,206.393 109.5,208.5C 108.167,208.833 106.833,209.167 105.5,209.5C 105.833,208.833 106.167,208.167 106.5,207.5C 109.81,205.179 110.477,202.179 108.5,198.5C 110.167,198.5 111.833,198.5 113.5,198.5 Z"/></g>
<g><path style="opacity:1" fill="#fac52b" d="M 157.5,199.5 C 158.997,201.542 160.663,203.375 162.5,205C 161.788,206.442 160.621,207.275 159,207.5C 157.56,206.852 156.06,206.519 154.5,206.5C 153.688,205.007 152.355,204.34 150.5,204.5C 147.989,205.655 145.322,206.322 142.5,206.5C 142.5,207.833 142.5,209.167 142.5,210.5C 141.077,212.545 139.077,213.545 136.5,213.5C 136.056,208.831 137.39,204.831 140.5,201.5C 141.681,199.933 143.347,199.099 145.5,199C 149.554,198.306 153.554,198.473 157.5,199.5 Z"/></g>
<g><path style="opacity:0.624" fill="#f8e5a9" d="M 295.5,209.5 C 295.167,209.5 294.833,209.5 294.5,209.5C 294.5,207.5 294.5,205.5 294.5,203.5C 292.167,203.5 289.833,203.5 287.5,203.5C 287.795,205.735 287.461,207.735 286.5,209.5C 286.167,209.5 285.833,209.5 285.5,209.5C 286.369,207.283 286.702,204.95 286.5,202.5C 289.252,202.422 291.918,202.255 294.5,202C 295.435,204.381 295.768,206.881 295.5,209.5 Z"/></g>
<g><path style="opacity:0.82" fill="#fbde8c" d="M 441.5,202.5 C 442.568,203.434 443.901,203.768 445.5,203.5C 442.536,203.98 439.536,204.313 436.5,204.5C 437.635,202.787 439.302,202.12 441.5,202.5 Z"/></g>
<g><path style="opacity:1" fill="#f9c31e" d="M 319.5,200.5 C 325.196,200.447 330.862,200.78 336.5,201.5C 336.833,201.5 337.167,201.5 337.5,201.5C 338.2,205.798 338.533,210.131 338.5,214.5C 336.799,214.034 335.299,214.034 334,214.5C 333.503,211.854 333.336,209.187 333.5,206.5C 332.4,205.442 331.066,204.608 329.5,204C 326.628,203.685 323.795,203.185 321,202.5C 319.97,202.164 319.47,201.497 319.5,200.5 Z"/></g>
<g><path style="opacity:0.961" fill="#fbdb7c" d="M 89.5,199.5 C 90.1667,199.5 90.8333,199.5 91.5,199.5C 92.5366,201.738 92.7033,204.071 92,206.5C 88.9343,209.396 86.1009,212.396 83.5,215.5C 84.9886,211.498 87.4886,208.164 91,205.5C 91.7484,203.16 91.2484,201.16 89.5,199.5 Z"/></g>
<g><path style="opacity:1" fill="#f6c93b" d="M 61.5,205.5 C 62.4916,205.328 63.1583,205.662 63.5,206.5C 60.6895,208.974 58.6895,211.974 57.5,215.5C 55.8868,215.944 54.7202,216.944 54,218.5C 51.8921,217.388 50.3921,218.054 49.5,220.5C 48.5,220.833 47.8333,221.5 47.5,222.5C 45.8235,221.817 45.1568,220.483 45.5,218.5C 49.4558,216.212 52.7891,213.212 55.5,209.5C 57.7541,208.585 59.7541,207.252 61.5,205.5 Z"/></g>
<g><path style="opacity:1" fill="#f4cd54" d="M 154.5,206.5 C 154.167,206.5 153.833,206.5 153.5,206.5C 150.45,206.006 147.45,206.673 144.5,208.5C 143.549,209.919 143.216,211.585 143.5,213.5C 142.596,212.791 142.263,211.791 142.5,210.5C 142.5,209.167 142.5,207.833 142.5,206.5C 145.322,206.322 147.989,205.655 150.5,204.5C 152.355,204.34 153.688,205.007 154.5,206.5 Z"/></g>
<g><path style="opacity:1" fill="#f6d677" d="M 157.5,199.5 C 165.773,201.587 166.606,205.253 160,210.5C 157.702,209.273 155.535,207.94 153.5,206.5C 153.833,206.5 154.167,206.5 154.5,206.5C 156.06,206.519 157.56,206.852 159,207.5C 160.621,207.275 161.788,206.442 162.5,205C 160.663,203.375 158.997,201.542 157.5,199.5 Z"/></g>
<g><path style="opacity:0.618" fill="#f4d98a" d="M 312.5,199.5 C 312.5,199.833 312.5,200.167 312.5,200.5C 311.167,213.833 311.167,227.167 312.5,240.5C 312.5,240.833 312.5,241.167 312.5,241.5C 311.17,234.867 310.503,227.867 310.5,220.5C 310.667,213.5 310.833,206.5 311,199.5C 311.69,198.262 312.19,198.262 312.5,199.5 Z"/></g>
<g><path style="opacity:1" fill="#f9c528" d="M 312.5,200.5 C 314.833,200.5 317.167,200.5 319.5,200.5C 319.47,201.497 319.97,202.164 321,202.5C 323.795,203.185 326.628,203.685 329.5,204C 331.066,204.608 332.4,205.442 333.5,206.5C 332.167,206.5 330.833,206.5 329.5,206.5C 325.958,206.187 322.625,206.521 319.5,207.5C 318.176,211.107 317.509,215.107 317.5,219.5C 317.501,223.681 317.834,227.681 318.5,231.5C 318.5,232.167 318.833,232.5 319.5,232.5C 319.5,232.833 319.5,233.167 319.5,233.5C 321.156,235.06 323.156,236.06 325.5,236.5C 322.552,236.223 319.719,236.556 317,237.5C 316.385,235.884 315.385,234.551 314,233.5C 313.667,231.833 313.333,230.167 313,228.5C 312.501,232.486 312.334,236.486 312.5,240.5C 311.167,227.167 311.167,213.833 312.5,200.5 Z"/></g>
<g><path style="opacity:0.396" fill="#fbe390" d="M 66.5,205.5 C 66.5,205.833 66.5,206.167 66.5,206.5C 63.1395,209.194 60.1395,212.194 57.5,215.5C 58.6895,211.974 60.6895,208.974 63.5,206.5C 64.391,205.89 65.391,205.557 66.5,205.5 Z"/></g>
<g><path style="opacity:0.149" fill="#fef2b0" d="M 144.5,208.5 C 144.253,210.858 144.919,212.858 146.5,214.5C 145.391,214.443 144.391,214.11 143.5,213.5C 143.216,211.585 143.549,209.919 144.5,208.5 Z"/></g>
<g><path style="opacity:0.596" fill="#f2d57e" d="M 358.5,213.5 C 358.167,213.5 357.833,213.5 357.5,213.5C 357.5,213.167 357.5,212.833 357.5,212.5C 356.082,210.692 354.082,210.025 351.5,210.5C 351.172,221.014 351.506,231.347 352.5,241.5C 352.44,242.043 352.107,242.376 351.5,242.5C 350.501,231.52 350.168,220.52 350.5,209.5C 353.167,209.5 355.833,209.5 358.5,209.5C 358.5,210.833 358.5,212.167 358.5,213.5 Z"/></g>
<g><path style="opacity:1" fill="#f7c730" d="M 91.5,199.5 C 92.4959,199.414 93.3292,199.748 94,200.5C 94.3333,202.833 94.6667,205.167 95,207.5C 95.6708,206.748 96.5041,206.414 97.5,206.5C 100.518,206.704 103.518,207.037 106.5,207.5C 106.167,208.167 105.833,208.833 105.5,209.5C 104.167,209.5 102.833,209.5 101.5,209.5C 100.201,207.901 98.5348,207.401 96.5,208C 91.3436,213.892 86.3436,219.726 81.5,225.5C 81.728,223.645 81.0613,222.812 79.5,223C 76.6059,225.965 73.6059,228.799 70.5,231.5C 70.5569,230.391 70.8902,229.391 71.5,228.5C 73.1942,227.473 74.5275,226.139 75.5,224.5C 78.8792,222.032 81.5459,219.032 83.5,215.5C 86.1009,212.396 88.9343,209.396 92,206.5C 92.7033,204.071 92.5366,201.738 91.5,199.5 Z"/></g>
<g><path style="opacity:0.043" fill="#fff7d3" d="M 109.5,208.5 C 109.423,209.75 108.756,210.583 107.5,211C 104.24,211.784 101.073,211.617 98,210.5C 97.5831,211.756 96.7498,212.423 95.5,212.5C 95.4142,211.504 95.7476,210.671 96.5,210C 98.1341,209.506 99.8008,209.34 101.5,209.5C 102.833,209.5 104.167,209.5 105.5,209.5C 106.833,209.167 108.167,208.833 109.5,208.5 Z"/></g>
<g><path style="opacity:0.961" fill="#f9d97c" d="M 140.5,201.5 C 137.39,204.831 136.056,208.831 136.5,213.5C 137.167,215.5 137.833,217.5 138.5,219.5C 136.057,216.925 134.724,214.092 134.5,211C 135.207,208.48 136.04,205.98 137,203.5C 137.816,202.177 138.983,201.511 140.5,201.5 Z"/></g>
<g><path style="opacity:0.565" fill="#f7e492" d="M 186.5,209.5 C 185.341,211.25 183.674,212.25 181.5,212.5C 182.659,210.75 184.326,209.75 186.5,209.5 Z"/></g>
<g><path style="opacity:0.988" fill="#fae59e" d="M 235.5,209.5 C 237.966,208.366 240.633,208.199 243.5,209C 246.025,209.424 248.025,210.59 249.5,212.5C 245.119,210.264 240.452,209.264 235.5,209.5 Z"/></g>
<g><path style="opacity:0.847" fill="#fae29a" d="M 410.5,210.5 C 410.5,210.167 410.5,209.833 410.5,209.5C 414.627,209.635 417.294,211.635 418.5,215.5C 416.345,213.011 413.678,211.344 410.5,210.5 Z"/></g>
<g><path style="opacity:0.998" fill="#f6c424" d="M 461.5,209.5 C 463.896,211.023 466.562,212.023 469.5,212.5C 469.5,213.833 469.5,215.167 469.5,216.5C 467.5,216.5 465.5,216.5 463.5,216.5C 462.551,215.848 461.385,215.514 460,215.5C 458.319,215.608 457.152,216.275 456.5,217.5C 455.566,218.568 455.232,219.901 455.5,221.5C 454.351,221.209 453.684,220.376 453.5,219C 454.259,215.767 456.259,213.6 459.5,212.5C 459,212.167 458.5,211.833 458,211.5C 455.846,212.274 453.679,212.941 451.5,213.5C 454.309,211.103 457.642,209.77 461.5,209.5 Z"/></g>
<g><path style="opacity:1" fill="#fac31d" d="M 198.5,240.5 C 196.5,240.5 194.5,240.5 192.5,240.5C 192.666,232.493 192.5,224.493 192,216.5C 189.063,215.183 186.23,215.183 183.5,216.5C 181.767,215.992 181.434,215.159 182.5,214C 185.346,212.81 188.179,211.643 191,210.5C 192.167,210.667 193.333,210.833 194.5,211C 195.532,213.874 197.532,215.374 200.5,215.5C 198.633,223.617 197.967,231.95 198.5,240.5 Z"/></g>
<g><path style="opacity:0.624" fill="#fbebb7" d="M 196.5,210.5 C 197.906,210.973 198.573,211.973 198.5,213.5C 197.094,213.027 196.427,212.027 196.5,210.5 Z"/></g>
<g><path style="opacity:0.725" fill="#fbe495" d="M 212.5,209.5 C 215.204,209.67 216.871,211.003 217.5,213.5C 215.611,212.396 213.945,211.063 212.5,209.5 Z"/></g>
<g><path style="opacity:0.945" fill="#f9e095" d="M 464.5,209.5 C 463.5,209.5 462.5,209.5 461.5,209.5C 457.642,209.77 454.309,211.103 451.5,213.5C 450.5,214.167 449.5,214.833 448.5,215.5C 449.658,212.178 451.992,210.012 455.5,209C 458.696,208.195 461.696,208.362 464.5,209.5 Z"/></g>
<g><path style="opacity:1" fill="#f4d269" d="M 461.5,209.5 C 462.5,209.5 463.5,209.5 464.5,209.5C 468.884,209.399 471.05,211.399 471,215.5C 470.617,216.056 470.117,216.389 469.5,216.5C 469.5,215.167 469.5,213.833 469.5,212.5C 466.562,212.023 463.896,211.023 461.5,209.5 Z"/></g>
<g><path style="opacity:0.999" fill="#f2c431" d="M 180.5,213.5 C 180.5,215.5 180.5,217.5 180.5,219.5C 180.5,226.833 180.5,234.167 180.5,241.5C 179.833,241.5 179.167,241.5 178.5,241.5C 179.47,232.918 179.803,224.251 179.5,215.5C 177.833,215.5 176.167,215.5 174.5,215.5C 174.826,223.684 174.492,231.684 173.5,239.5C 173.5,229.833 173.5,220.167 173.5,210.5C 175.5,210.5 177.5,210.5 179.5,210.5C 179.263,211.791 179.596,212.791 180.5,213.5 Z"/></g>
<g><path style="opacity:0.831" fill="#fbe595" d="M 204.5,209.5 C 203.833,210.5 203.167,211.5 202.5,212.5C 201.518,213.141 200.518,213.807 199.5,214.5C 198.893,214.376 198.56,214.043 198.5,213.5C 200.246,211.748 202.246,210.415 204.5,209.5 Z"/></g>
<g><path style="opacity:0.992" fill="#f6c940" d="M 268.5,213.5 C 269.236,211.771 270.57,210.771 272.5,210.5C 274.833,210.5 277.167,210.5 279.5,210.5C 279.5,212.5 279.5,214.5 279.5,216.5C 276.612,215.99 274.279,216.656 272.5,218.5C 271.21,219.058 270.377,220.058 270,221.5C 269.5,228.158 269.334,234.825 269.5,241.5C 266.833,241.5 264.167,241.5 261.5,241.5C 261.5,231.167 261.5,220.833 261.5,210.5C 263.5,210.5 265.5,210.5 267.5,210.5C 267.263,211.791 267.596,212.791 268.5,213.5 Z"/></g>
<g><path style="opacity:1" fill="#fbc31c" d="M 293.5,215.5 C 293.179,221.026 293.512,226.36 294.5,231.5C 294.5,231.833 294.5,232.167 294.5,232.5C 294.539,233.583 294.873,234.583 295.5,235.5C 297.743,236.474 300.076,236.808 302.5,236.5C 302.5,237.833 302.5,239.167 302.5,240.5C 299.193,241.051 295.86,241.384 292.5,241.5C 289.816,239.129 288.482,236.129 288.5,232.5C 289.339,223.146 289.339,213.812 288.5,204.5C 290.167,204.5 291.833,204.5 293.5,204.5C 293.06,208.371 293.06,212.038 293.5,215.5 Z"/></g>
<g><path style="opacity:1" fill="#f5c427" d="M 429.5,203.5 C 429.183,206.572 429.516,209.572 430.5,212.5C 431.881,213 432.547,214 432.5,215.5C 431.244,215.999 430.41,217.332 430,219.5C 429.667,226.505 429.833,233.505 430.5,240.5C 431.833,240.5 433.167,240.5 434.5,240.5C 434.5,240.833 434.5,241.167 434.5,241.5C 432.833,241.5 431.167,241.5 429.5,241.5C 429.199,232.848 428.199,224.515 426.5,216.5C 424.925,214.886 424.259,212.886 424.5,210.5C 425.822,210.67 426.989,210.337 428,209.5C 428.191,207.292 428.691,205.292 429.5,203.5 Z"/></g>
<g><path style="opacity:1" fill="#f4c426" d="M 294.5,209.5 C 294.611,210.117 294.944,210.617 295.5,211C 297.81,211.497 300.143,211.663 302.5,211.5C 302.5,212.833 302.5,214.167 302.5,215.5C 299.5,215.5 296.5,215.5 293.5,215.5C 293.06,212.038 293.06,208.371 293.5,204.5C 291.833,204.5 290.167,204.5 288.5,204.5C 289.339,213.812 289.339,223.146 288.5,232.5C 287.673,227.349 287.173,222.016 287,216.5C 285.644,215.62 284.144,215.286 282.5,215.5C 282.5,213.833 282.5,212.167 282.5,210.5C 284.099,210.768 285.432,210.434 286.5,209.5C 287.461,207.735 287.795,205.735 287.5,203.5C 289.833,203.5 292.167,203.5 294.5,203.5C 294.5,205.5 294.5,207.5 294.5,209.5 Z"/></g>
<g><path style="opacity:1" fill="#f6d468" d="M 337.5,201.5 C 343.154,207.386 342.821,212.886 336.5,218C 339.641,218.715 341.641,220.548 342.5,223.5C 341.833,223.167 341.167,222.833 340.5,222.5C 337.27,221.272 335.604,218.939 335.5,215.5C 333.435,215.517 331.435,215.85 329.5,216.5C 325.958,216.813 322.625,216.479 319.5,215.5C 323.182,215.665 326.848,215.499 330.5,215C 333.17,211.838 332.837,209.005 329.5,206.5C 330.833,206.5 332.167,206.5 333.5,206.5C 333.336,209.187 333.503,211.854 334,214.5C 335.299,214.034 336.799,214.034 338.5,214.5C 338.533,210.131 338.2,205.798 337.5,201.5 Z"/></g>
<g><path style="opacity:1" fill="#f9c41c" d="M 410.5,210.5 C 413.678,211.344 416.345,213.011 418.5,215.5C 418.5,219.167 418.5,222.833 418.5,226.5C 411.8,226.83 405.134,226.497 398.5,225.5C 403.456,224.506 408.456,224.173 413.5,224.5C 413.808,222.076 413.474,219.743 412.5,217.5C 411.583,216.873 410.583,216.539 409.5,216.5C 409.5,216.167 409.5,215.833 409.5,215.5C 408.207,214.842 406.707,214.508 405,214.5C 402.179,214.408 399.679,215.074 397.5,216.5C 396.833,216.5 396.5,216.167 396.5,215.5C 399.98,210.972 404.646,209.305 410.5,210.5 Z"/></g>
<g><path style="opacity:0.992" fill="#f4cb4a" d="M 196.5,210.5 C 196.427,212.027 197.094,213.027 198.5,213.5C 198.56,214.043 198.893,214.376 199.5,214.5C 200.518,213.807 201.518,213.141 202.5,212.5C 204.508,214.083 206.841,215.083 209.5,215.5C 206.612,214.99 204.279,215.656 202.5,217.5C 202.068,218.71 201.401,219.71 200.5,220.5C 199.833,227.167 199.167,233.833 198.5,240.5C 197.967,231.95 198.633,223.617 200.5,215.5C 197.532,215.374 195.532,213.874 194.5,211C 193.333,210.833 192.167,210.667 191,210.5C 188.179,211.643 185.346,212.81 182.5,214C 181.434,215.159 181.767,215.992 183.5,216.5C 183.5,216.833 183.5,217.167 183.5,217.5C 183.5,218.167 183.167,218.5 182.5,218.5C 181.833,218.833 181.167,219.167 180.5,219.5C 180.5,217.5 180.5,215.5 180.5,213.5C 181.167,213.5 181.5,213.167 181.5,212.5C 183.674,212.25 185.341,211.25 186.5,209.5C 189.883,208.121 193.216,208.454 196.5,210.5 Z"/></g>
<g><path style="opacity:1" fill="#f9c529" d="M 212.5,209.5 C 213.945,211.063 215.611,212.396 217.5,213.5C 217.5,214.833 217.5,216.167 217.5,217.5C 217.5,225.167 217.5,232.833 217.5,240.5C 215.833,240.5 214.167,240.5 212.5,240.5C 211.671,233.345 211.171,226.011 211,218.5C 210.487,217.473 209.987,216.473 209.5,215.5C 206.841,215.083 204.508,214.083 202.5,212.5C 203.167,211.5 203.833,210.5 204.5,209.5C 207.167,208.167 209.833,208.167 212.5,209.5 Z"/></g>
<g><path style="opacity:1" fill="#f7c425" d="M 235.5,209.5 C 240.452,209.264 245.119,210.264 249.5,212.5C 249.5,213.833 249.5,215.167 249.5,216.5C 248.883,216.389 248.383,216.056 248,215.5C 247.505,217.473 247.338,219.473 247.5,221.5C 246.5,221.5 245.5,221.5 244.5,221.5C 245.084,218.715 244.084,217.048 241.5,216.5C 237.486,214.797 233.82,215.464 230.5,218.5C 227.962,216.26 227.962,213.927 230.5,211.5C 231.78,210.069 233.447,209.402 235.5,209.5 Z"/></g>
<g><path style="opacity:0.384" fill="#fae298" d="M 361.5,218.5 C 363.635,216.631 366.302,215.964 369.5,216.5C 369.5,214.5 369.5,212.5 369.5,210.5C 367.167,210.5 364.833,210.5 362.5,210.5C 365.562,207.673 368.562,207.839 371.5,211C 370.929,213.611 370.096,216.111 369,218.5C 366.541,217.351 364.041,217.351 361.5,218.5 Z"/></g>
<g><path style="opacity:1" fill="#f5d167" d="M 410.5,209.5 C 410.5,209.833 410.5,210.167 410.5,210.5C 404.646,209.305 399.98,210.972 396.5,215.5C 393.661,218.287 392.328,221.787 392.5,226C 392.433,229.986 393.099,233.819 394.5,237.5C 392.59,236.025 391.424,234.025 391,231.5C 390.232,227.08 390.398,222.747 391.5,218.5C 392.906,218.027 393.573,217.027 393.5,215.5C 394.359,212.548 396.359,210.715 399.5,210C 403.157,208.353 406.823,208.187 410.5,209.5 Z"/></g>
<g><path style="opacity:1" fill="#fbc319" d="M 441.5,202.5 C 439.302,202.12 437.635,202.787 436.5,204.5C 434.271,206.099 433.938,208.099 435.5,210.5C 437.948,211.473 440.615,211.806 443.5,211.5C 443.5,212.5 443.5,213.5 443.5,214.5C 440.552,214.223 437.719,214.556 435,215.5C 434.5,223.827 434.334,232.16 434.5,240.5C 433.167,240.5 431.833,240.5 430.5,240.5C 429.833,233.505 429.667,226.505 430,219.5C 430.41,217.332 431.244,215.999 432.5,215.5C 432.547,214 431.881,213 430.5,212.5C 429.516,209.572 429.183,206.572 429.5,203.5C 430.625,201.871 431.959,200.371 433.5,199C 437.152,198.501 440.818,198.335 444.5,198.5C 444.5,199.833 444.5,201.167 444.5,202.5C 443.5,202.5 442.5,202.5 441.5,202.5 Z"/></g>
<g><path style="opacity:0.51" fill="#fde797" d="M 55.5,209.5 C 52.7891,213.212 49.4558,216.212 45.5,218.5C 45.5569,217.391 45.8902,216.391 46.5,215.5C 49.5178,213.474 52.5178,211.474 55.5,209.5 Z"/></g>
<g><path style="opacity:0.871" fill="#fadc8d" d="M 146.5,214.5 C 150.446,214.882 154.112,215.882 157.5,217.5C 154.126,217.326 150.793,216.826 147.5,216C 146.944,215.617 146.611,215.117 146.5,214.5 Z"/></g>
<g><path style="opacity:0.761" fill="#f9de94" d="M 436.5,204.5 C 436.586,205.496 436.252,206.329 435.5,207C 436.126,207.75 436.626,208.584 437,209.5C 444.677,206.679 447.177,209.013 444.5,216.5C 441.833,216.5 439.167,216.5 436.5,216.5C 438.948,215.527 441.615,215.194 444.5,215.5C 444.5,213.833 444.5,212.167 444.5,210.5C 441.5,210.5 438.5,210.5 435.5,210.5C 433.938,208.099 434.271,206.099 436.5,204.5 Z"/></g>
<g><path style="opacity:0.125" fill="#feeeae" d="M 463.5,216.5 C 461.05,216.298 458.717,216.631 456.5,217.5C 457.152,216.275 458.319,215.608 460,215.5C 461.385,215.514 462.551,215.848 463.5,216.5 Z"/></g>
<g><path style="opacity:0.779" fill="#f3d379" d="M 180.5,213.5 C 179.596,212.791 179.263,211.791 179.5,210.5C 177.5,210.5 175.5,210.5 173.5,210.5C 173.5,220.167 173.5,229.833 173.5,239.5C 174.167,240.167 174.833,240.833 175.5,241.5C 174.603,242.598 173.77,242.598 173,241.5C 172.5,230.839 172.333,220.172 172.5,209.5C 175.167,209.5 177.833,209.5 180.5,209.5C 180.5,210.833 180.5,212.167 180.5,213.5 Z"/></g>
<g><path style="opacity:0.973" fill="#f7d983" d="M 230.5,211.5 C 227.962,213.927 227.962,216.26 230.5,218.5C 233.82,215.464 237.486,214.797 241.5,216.5C 237.505,215.883 234.172,217.049 231.5,220C 230.5,220.667 229.5,220.667 228.5,220C 224.056,215.949 224.722,213.115 230.5,211.5 Z"/></g>
<g><path style="opacity:0.996" fill="#f1c535" d="M 435.5,210.5 C 438.5,210.5 441.5,210.5 444.5,210.5C 444.5,212.167 444.5,213.833 444.5,215.5C 441.615,215.194 438.948,215.527 436.5,216.5C 435.833,224.5 435.167,232.5 434.5,240.5C 434.334,232.16 434.5,223.827 435,215.5C 437.719,214.556 440.552,214.223 443.5,214.5C 443.5,213.5 443.5,212.5 443.5,211.5C 440.615,211.806 437.948,211.473 435.5,210.5 Z"/></g>
<g><path style="opacity:0.996" fill="#f3d675" d="M 463.5,216.5 C 465.5,216.5 467.5,216.5 469.5,216.5C 467.594,218.994 465.594,218.994 463.5,216.5 Z"/></g>
<g><path style="opacity:0.2" fill="#fff6d3" d="M 66.5,206.5 C 66.8333,206.5 67.1667,206.5 67.5,206.5C 64.0041,209.843 61.0041,213.676 58.5,218C 58.6667,218.5 58.8333,219 59,219.5C 60.3528,218.296 62.0194,217.629 64,217.5C 65.5,217.667 67,217.833 68.5,218C 68.838,221.254 69.838,224.088 71.5,226.5C 71.5,227.167 71.5,227.833 71.5,228.5C 68.2991,229.931 65.2991,231.597 62.5,233.5C 61.8333,233.5 61.1667,233.5 60.5,233.5C 59.7611,233.631 59.0944,233.464 58.5,233C 59.2524,232.329 59.5858,231.496 59.5,230.5C 59.5,230.167 59.5,229.833 59.5,229.5C 61.9514,228.106 64.6181,227.272 67.5,227C 68.807,225.057 68.807,223.223 67.5,221.5C 67.6716,220.508 67.3382,219.842 66.5,219.5C 62.9192,217.761 60.2525,218.761 58.5,222.5C 58.5,221.833 58.1667,221.5 57.5,221.5C 57.5,220.5 57.5,219.5 57.5,218.5C 57.5,217.5 57.5,216.5 57.5,215.5C 60.1395,212.194 63.1395,209.194 66.5,206.5 Z M 64.5,228.5 C 65.7733,229.077 65.7733,229.743 64.5,230.5C 63.537,230.03 63.537,229.363 64.5,228.5 Z"/></g>
<g><path style="opacity:1" fill="#f8c41f" d="M 142.5,210.5 C 142.263,211.791 142.596,212.791 143.5,213.5C 144.391,214.11 145.391,214.443 146.5,214.5C 146.611,215.117 146.944,215.617 147.5,216C 150.793,216.826 154.126,217.326 157.5,217.5C 157.833,217.5 158.167,217.5 158.5,217.5C 158.5,218.5 158.5,219.5 158.5,220.5C 160.858,220.253 162.858,220.919 164.5,222.5C 164.5,223.833 164.5,225.167 164.5,226.5C 161.955,223.953 159.288,221.453 156.5,219C 155.167,218.333 153.833,218.333 152.5,219C 153.337,220.011 153.67,221.178 153.5,222.5C 150.813,222.664 148.146,222.497 145.5,222C 143.559,220.097 141.226,219.264 138.5,219.5C 137.833,217.5 137.167,215.5 136.5,213.5C 139.077,213.545 141.077,212.545 142.5,210.5 Z"/></g>
<g><path style="opacity:0.286" fill="#feedae" d="M 393.5,215.5 C 393.573,217.027 392.906,218.027 391.5,218.5C 391.427,216.973 392.094,215.973 393.5,215.5 Z"/></g>
<g><path style="opacity:1" fill="#fbc41b" d="M 164.5,226.5 C 164.252,231.174 163.252,235.507 161.5,239.5C 159.08,239.292 156.747,239.626 154.5,240.5C 153.548,238.955 153.215,237.288 153.5,235.5C 154.833,235.5 156.167,235.5 157.5,235.5C 157.5,233.833 157.5,232.167 157.5,230.5C 157.5,230.167 157.5,229.833 157.5,229.5C 158.782,228.292 158.782,226.958 157.5,225.5C 156.358,224.174 155.024,223.174 153.5,222.5C 153.67,221.178 153.337,220.011 152.5,219C 153.833,218.333 155.167,218.333 156.5,219C 159.288,221.453 161.955,223.953 164.5,226.5 Z"/></g>
<g><path style="opacity:0.798" fill="#f5d982" d="M 285.5,209.5 C 285.833,209.5 286.167,209.5 286.5,209.5C 285.432,210.434 284.099,210.768 282.5,210.5C 282.5,212.167 282.5,213.833 282.5,215.5C 284.144,215.286 285.644,215.62 287,216.5C 287.173,222.016 287.673,227.349 288.5,232.5C 288.482,236.129 289.816,239.129 292.5,241.5C 289.909,240.746 288.076,239.079 287,236.5C 286.667,230.167 286.333,223.833 286,217.5C 284.883,217.335 283.716,217.002 282.5,216.5C 281.702,214.922 281.202,213.256 281,211.5C 280.764,213.764 280.264,215.931 279.5,218C 277.137,217.335 274.804,217.502 272.5,218.5C 274.279,216.656 276.612,215.99 279.5,216.5C 279.5,214.5 279.5,212.5 279.5,210.5C 277.167,210.5 274.833,210.5 272.5,210.5C 275.263,207.985 278.096,207.985 281,210.5C 282.356,209.62 283.856,209.286 285.5,209.5 Z"/></g>
<g><path style="opacity:0.992" fill="#f3d06f" d="M 302.5,216.5 C 299.833,216.5 297.167,216.5 294.5,216.5C 294.5,221.5 294.5,226.5 294.5,231.5C 293.512,226.36 293.179,221.026 293.5,215.5C 296.5,215.5 299.5,215.5 302.5,215.5C 302.5,214.167 302.5,212.833 302.5,211.5C 300.143,211.663 297.81,211.497 295.5,211C 294.944,210.617 294.611,210.117 294.5,209.5C 294.833,209.5 295.167,209.5 295.5,209.5C 298.176,208.992 300.843,208.825 303.5,209C 304.108,210.231 304.441,211.564 304.5,213C 304.392,214.681 303.725,215.848 302.5,216.5 Z"/></g>
<g><path style="opacity:1" fill="#f9c945" d="M 319.5,207.5 C 319.5,210.167 319.5,212.833 319.5,215.5C 322.625,216.479 325.958,216.813 329.5,216.5C 326.512,218.14 323.179,218.974 319.5,219C 324.098,220.061 328.765,221.061 333.5,222C 335.89,224.695 336.89,227.861 336.5,231.5C 336.167,231.5 335.833,231.5 335.5,231.5C 335.795,229.265 335.461,227.265 334.5,225.5C 331.981,223.945 329.148,223.278 326,223.5C 323.639,223.504 321.473,223.837 319.5,224.5C 318.532,226.607 318.198,228.941 318.5,231.5C 317.834,227.681 317.501,223.681 317.5,219.5C 317.509,215.107 318.176,211.107 319.5,207.5 Z"/></g>
<g><path style="opacity:1" fill="#f8c42a" d="M 362.5,210.5 C 364.833,210.5 367.167,210.5 369.5,210.5C 369.5,212.5 369.5,214.5 369.5,216.5C 366.302,215.964 363.635,216.631 361.5,218.5C 361.5,219.167 361.167,219.5 360.5,219.5C 359.599,220.29 358.932,221.29 358.5,222.5C 357.833,228.5 357.167,234.5 356.5,240.5C 356.334,234.158 356.5,227.825 357,221.5C 357.121,219.273 357.954,217.44 359.5,216C 358.244,215.583 357.577,214.75 357.5,213.5C 357.833,213.5 358.167,213.5 358.5,213.5C 359.236,211.771 360.57,210.771 362.5,210.5 Z"/></g>
<g><path style="opacity:1" fill="#fac31c" d="M 396.5,215.5 C 396.5,216.167 396.833,216.5 397.5,216.5C 398.502,218.992 398.502,221.658 397.5,224.5C 398.004,228.707 399.004,232.707 400.5,236.5C 402.415,236.784 404.081,236.451 405.5,235.5C 407.415,235.784 409.081,235.451 410.5,234.5C 415.23,231.208 417.23,232.542 416.5,238.5C 413.042,239.22 409.542,239.887 406,240.5C 401.881,240.52 398.048,239.52 394.5,237.5C 393.099,233.819 392.433,229.986 392.5,226C 392.328,221.787 393.661,218.287 396.5,215.5 Z"/></g>
<g><path style="opacity:1" fill="#f8d671" d="M 158.5,217.5 C 161.362,218.247 163.362,219.914 164.5,222.5C 162.858,220.919 160.858,220.253 158.5,220.5C 158.5,219.5 158.5,218.5 158.5,217.5 Z"/></g>
<g><path style="opacity:0.216" fill="#fff6d3" d="M 46.5,215.5 C 45.8902,216.391 45.5569,217.391 45.5,218.5C 44.2058,219.29 43.0391,220.29 42,221.5C 40.7258,224.391 39.2258,227.058 37.5,229.5C 38.5177,223.443 41.5177,218.776 46.5,215.5 Z"/></g>
<g><path style="opacity:0.788" fill="#fadd84" d="M 83.5,215.5 C 81.5459,219.032 78.8792,222.032 75.5,224.5C 77.4593,220.874 80.126,217.874 83.5,215.5 Z"/></g>
<g><path style="opacity:0.957" fill="#fbe7a1" d="M 456.5,217.5 C 456.5,218.5 456.5,219.5 456.5,220.5C 457.791,220.263 458.791,220.596 459.5,221.5C 458.167,221.5 456.833,221.5 455.5,221.5C 455.232,219.901 455.566,218.568 456.5,217.5 Z"/></g>
<g><path style="opacity:1" fill="#f9d66a" d="M 45.5,218.5 C 45.1568,220.483 45.8235,221.817 47.5,222.5C 47.5,222.833 47.5,223.167 47.5,223.5C 46.0245,225.007 44.6912,226.673 43.5,228.5C 43.6567,227.127 43.49,225.793 43,224.5C 41.4138,226.67 40.0804,229.004 39,231.5C 37.9812,237.375 36.4812,243.041 34.5,248.5C 32.264,251.967 30.264,255.634 28.5,259.5C 27.9033,259.265 27.5699,258.765 27.5,258C 30.5168,251.807 33.3502,245.64 36,239.5C 37.1488,236.607 37.6488,233.607 37.5,230.5C 37.5,230.167 37.5,229.833 37.5,229.5C 39.2258,227.058 40.7258,224.391 42,221.5C 43.0391,220.29 44.2058,219.29 45.5,218.5 Z"/></g>
<g><path style="opacity:0.439" fill="#fde99c" d="M 49.5,220.5 C 50.6935,220.97 51.3601,221.97 51.5,223.5C 51.6598,225.355 50.9931,226.688 49.5,227.5C 49.6775,226.305 50.0109,225.138 50.5,224C 49.8235,222.317 48.8235,222.15 47.5,223.5C 47.5,223.167 47.5,222.833 47.5,222.5C 47.8333,221.5 48.5,220.833 49.5,220.5 Z"/></g>
<g><path style="opacity:1" fill="#fac31c" d="M 178.5,241.5 C 177.5,241.5 176.5,241.5 175.5,241.5C 174.833,240.833 174.167,240.167 173.5,239.5C 174.492,231.684 174.826,223.684 174.5,215.5C 176.167,215.5 177.833,215.5 179.5,215.5C 179.803,224.251 179.47,232.918 178.5,241.5 Z"/></g>
<g><path style="opacity:0.204" fill="#fff6b7" d="M 302.5,216.5 C 300.393,217.468 298.059,217.802 295.5,217.5C 295.5,222.5 295.5,227.5 295.5,232.5C 295.167,232.5 294.833,232.5 294.5,232.5C 294.5,232.167 294.5,231.833 294.5,231.5C 294.5,226.5 294.5,221.5 294.5,216.5C 297.167,216.5 299.833,216.5 302.5,216.5 Z"/></g>
<g><path style="opacity:0.979" fill="#f8c42d" d="M 455.5,221.5 C 456.833,221.5 458.167,221.5 459.5,221.5C 459.833,221.5 460.167,221.5 460.5,221.5C 462.102,223.074 464.102,223.741 466.5,223.5C 466.833,223.5 467.167,223.5 467.5,223.5C 468.326,225.264 469.659,226.598 471.5,227.5C 472.833,230.5 472.833,233.5 471.5,236.5C 471.167,236.5 470.833,236.5 470.5,236.5C 470.492,233.455 470.159,230.455 469.5,227.5C 467.516,227.617 465.85,226.95 464.5,225.5C 463.713,226.242 463.047,227.075 462.5,228C 465.126,229.372 465.792,231.205 464.5,233.5C 464.229,231.57 463.229,230.236 461.5,229.5C 458.855,227.69 455.855,226.69 452.5,226.5C 449.22,223.595 447.887,219.929 448.5,215.5C 449.5,214.833 450.5,214.167 451.5,213.5C 453.679,212.941 455.846,212.274 458,211.5C 458.5,211.833 459,212.167 459.5,212.5C 456.259,213.6 454.259,215.767 453.5,219C 453.684,220.376 454.351,221.209 455.5,221.5 Z"/></g>
<g><path style="opacity:0.988" fill="#fad66b" d="M 57.5,215.5 C 57.5,216.5 57.5,217.5 57.5,218.5C 55.7606,220.375 54.7606,222.708 54.5,225.5C 54.7472,226.713 55.4138,227.38 56.5,227.5C 55.0758,231.047 52.4092,232.88 48.5,233C 47.9341,233.995 47.2674,234.828 46.5,235.5C 47.4485,232.86 48.4485,230.193 49.5,227.5C 50.9931,226.688 51.6598,225.355 51.5,223.5C 51.3601,221.97 50.6935,220.97 49.5,220.5C 50.3921,218.054 51.8921,217.388 54,218.5C 54.7202,216.944 55.8868,215.944 57.5,215.5 Z"/></g>
<g><path style="opacity:1" fill="#f6c838" d="M 66.5,219.5 C 67.3382,219.842 67.6716,220.508 67.5,221.5C 68.2447,224.93 66.9114,226.597 63.5,226.5C 61.9704,226.36 60.9704,225.693 60.5,224.5C 60.6509,220.686 62.6509,219.019 66.5,219.5 Z"/></g>
<g><path style="opacity:0.408" fill="#fff3ca" d="M 95.5,212.5 C 91.4321,219.319 86.4321,225.319 80.5,230.5C 84.2309,223.461 89.2309,217.461 95.5,212.5 Z"/></g>
<g><path style="opacity:1" fill="#f5ce5c" d="M 138.5,219.5 C 141.226,219.264 143.559,220.097 145.5,222C 148.146,222.497 150.813,222.664 153.5,222.5C 155.024,223.174 156.358,224.174 157.5,225.5C 158.782,226.958 158.782,228.292 157.5,229.5C 157.092,228.357 156.425,227.357 155.5,226.5C 150.945,224.694 146.279,223.194 141.5,222C 140.058,221.623 139.058,220.79 138.5,219.5 Z"/></g>
<g><path style="opacity:0.71" fill="#fce9a2" d="M 240.5,221.5 C 238.485,222.924 236.152,223.59 233.5,223.5C 235.515,222.076 237.848,221.41 240.5,221.5 Z"/></g>
<g><path style="opacity:0.62" fill="#f8de89" d="M 448.5,215.5 C 447.887,219.929 449.22,223.595 452.5,226.5C 450.248,226.084 448.748,224.751 448,222.5C 447.204,219.961 447.371,217.628 448.5,215.5 Z"/></g>
<g><path style="opacity:0.694" fill="#f9e596" d="M 460.5,221.5 C 462.786,221.595 464.786,222.262 466.5,223.5C 464.102,223.741 462.102,223.074 460.5,221.5 Z"/></g>
<g><path style="opacity:0.724" fill="#f7da8c" d="M 209.5,215.5 C 209.987,216.473 210.487,217.473 211,218.5C 211.171,226.011 211.671,233.345 212.5,240.5C 213.919,241.451 215.585,241.784 217.5,241.5C 215.393,242.468 213.059,242.802 210.5,242.5C 210.666,234.826 210.5,227.159 210,219.5C 208.297,216.281 205.797,215.614 202.5,217.5C 204.279,215.656 206.612,214.99 209.5,215.5 Z"/></g>
<g><path style="opacity:1" fill="#f5c844" d="M 241.5,216.5 C 244.084,217.048 245.084,218.715 244.5,221.5C 243.602,222.158 242.602,222.824 241.5,223.5C 242.612,224.265 243.279,225.265 243.5,226.5C 242.167,226.5 240.833,226.5 239.5,226.5C 238.848,225.275 237.681,224.608 236,224.5C 233.239,225.418 230.406,226.084 227.5,226.5C 228.911,224.461 230.911,223.461 233.5,223.5C 236.152,223.59 238.485,222.924 240.5,221.5C 243.82,220.239 244.154,218.572 241.5,216.5 Z"/></g>
<g><path style="opacity:0.999" fill="#fbc319" d="M 357.5,212.5 C 357.5,212.833 357.5,213.167 357.5,213.5C 357.577,214.75 358.244,215.583 359.5,216C 357.954,217.44 357.121,219.273 357,221.5C 356.5,227.825 356.334,234.158 356.5,240.5C 355.167,240.5 353.833,240.5 352.5,240.5C 352.5,230.833 352.5,221.167 352.5,211.5C 354.292,211.366 355.958,211.699 357.5,212.5 Z"/></g>
<g><path style="opacity:0.973" fill="#f7d15e" d="M 409.5,215.5 C 406.612,214.99 404.279,215.656 402.5,217.5C 401.163,218.315 400.163,219.482 399.5,221C 403.486,221.499 407.486,221.666 411.5,221.5C 411.608,219.486 410.942,217.82 409.5,216.5C 410.583,216.539 411.583,216.873 412.5,217.5C 413.474,219.743 413.808,222.076 413.5,224.5C 408.456,224.173 403.456,224.506 398.5,225.5C 405.134,226.497 411.8,226.83 418.5,226.5C 418.5,222.833 418.5,219.167 418.5,215.5C 420.412,219.194 420.912,223.194 420,227.5C 413.247,228.314 406.414,228.814 399.5,229C 400.053,230.878 401.053,232.378 402.5,233.5C 402.821,235.048 403.821,235.715 405.5,235.5C 404.081,236.451 402.415,236.784 400.5,236.5C 399.004,232.707 398.004,228.707 397.5,224.5C 398.502,221.658 398.502,218.992 397.5,216.5C 399.679,215.074 402.179,214.408 405,214.5C 406.707,214.508 408.207,214.842 409.5,215.5 Z M 409.5,216.5 C 410.942,217.82 411.608,219.486 411.5,221.5C 407.486,221.666 403.486,221.499 399.5,221C 400.163,219.482 401.163,218.315 402.5,217.5C 404.717,216.631 407.05,216.298 409.5,216.5 Z"/></g>
<g><path style="opacity:0.02" fill="#fff3b8" d="M 409.5,215.5 C 409.5,215.833 409.5,216.167 409.5,216.5C 407.05,216.298 404.717,216.631 402.5,217.5C 404.279,215.656 406.612,214.99 409.5,215.5 Z"/></g>
<g><path style="opacity:0.531" fill="#fce382" d="M 426.5,216.5 C 428.199,224.515 429.199,232.848 429.5,241.5C 429.19,242.738 428.69,242.738 428,241.5C 427.803,233.089 427.303,224.755 426.5,216.5 Z"/></g>
<g><path style="opacity:0.51" fill="#fae7ab" d="M 436.5,216.5 C 439.167,216.5 441.833,216.5 444.5,216.5C 442.052,217.473 439.385,217.806 436.5,217.5C 437.134,225.903 436.467,233.903 434.5,241.5C 434.5,241.167 434.5,240.833 434.5,240.5C 435.167,232.5 435.833,224.5 436.5,216.5 Z"/></g>
<g><path style="opacity:0.141" fill="#feedb5" d="M 57.5,218.5 C 57.5,219.5 57.5,220.5 57.5,221.5C 56.4265,222.251 56.2599,223.251 57,224.5C 57.7172,223.956 58.2172,223.289 58.5,222.5C 60.2525,218.761 62.9192,217.761 66.5,219.5C 62.6509,219.019 60.6509,220.686 60.5,224.5C 58.5,224.5 57.5,225.5 57.5,227.5C 57.1667,227.5 56.8333,227.5 56.5,227.5C 55.4138,227.38 54.7472,226.713 54.5,225.5C 54.7606,222.708 55.7606,220.375 57.5,218.5 Z M 57.5,221.5 C 58.1667,221.5 58.5,221.833 58.5,222.5C 58.2172,223.289 57.7172,223.956 57,224.5C 56.2599,223.251 56.4265,222.251 57.5,221.5 Z"/></g>
<g><path style="opacity:0.265" fill="#fdef99" d="M 182.5,218.5 C 181.895,226.298 181.229,233.964 180.5,241.5C 180.5,234.167 180.5,226.833 180.5,219.5C 181.167,219.167 181.833,218.833 182.5,218.5 Z"/></g>
<g><path style="opacity:0.998" fill="#edc246" d="M 217.5,217.5 C 218.492,225.316 218.826,233.316 218.5,241.5C 218.167,241.5 217.833,241.5 217.5,241.5C 215.585,241.784 213.919,241.451 212.5,240.5C 214.167,240.5 215.833,240.5 217.5,240.5C 217.5,232.833 217.5,225.167 217.5,217.5 Z"/></g>
<g><path style="opacity:0.313" fill="#feec9a" d="M 217.5,213.5 C 218.268,214.263 218.768,215.263 219,216.5C 219.823,225.01 219.657,233.344 218.5,241.5C 218.826,233.316 218.492,225.316 217.5,217.5C 217.5,216.167 217.5,214.833 217.5,213.5 Z"/></g>
<g><path style="opacity:0.998" fill="#fbc318" d="M 262.5,211.5 C 267.595,213.608 269.095,217.274 267,222.5C 266.501,228.491 266.334,234.491 266.5,240.5C 265.167,240.5 263.833,240.5 262.5,240.5C 262.5,230.833 262.5,221.167 262.5,211.5 Z"/></g>
<g><path style="opacity:0.949" fill="#efc54b" d="M 375.5,209.5 C 378.167,209.5 380.833,209.5 383.5,209.5C 383.5,220.167 383.5,230.833 383.5,241.5C 380.881,241.232 378.381,241.565 376,242.5C 375.5,231.505 375.333,220.505 375.5,209.5 Z"/></g>
<g><path style="opacity:1" fill="#fbc31a" d="M 376.5,210.5 C 378.5,210.5 380.5,210.5 382.5,210.5C 382.5,220.5 382.5,230.5 382.5,240.5C 380.5,240.5 378.5,240.5 376.5,240.5C 376.5,230.5 376.5,220.5 376.5,210.5 Z"/></g>
<g><path style="opacity:0.114" fill="#fef4c8" d="M 49.5,227.5 C 48.4485,230.193 47.4485,232.86 46.5,235.5C 45.2392,238.099 43.5725,240.432 41.5,242.5C 41.1667,241.667 40.8333,240.833 40.5,240C 41.8911,236.269 42.8911,232.436 43.5,228.5C 44.6912,226.673 46.0245,225.007 47.5,223.5C 48.8235,222.15 49.8235,222.317 50.5,224C 50.0109,225.138 49.6775,226.305 49.5,227.5 Z M 46.5,228.5 C 46.9867,227.527 47.4867,226.527 48,225.5C 48.7252,227.157 48.2252,228.157 46.5,228.5 Z"/></g>
<g><path style="opacity:0.736" fill="#fad87b" d="M 198.5,240.5 C 199.167,233.833 199.833,227.167 200.5,220.5C 200.83,227.532 200.497,234.532 199.5,241.5C 197.264,241.417 194.93,241.75 192.5,242.5C 191.669,234.855 191.169,227.188 191,219.5C 189.132,216.489 186.632,215.822 183.5,217.5C 183.5,217.167 183.5,216.833 183.5,216.5C 186.23,215.183 189.063,215.183 192,216.5C 192.5,224.493 192.666,232.493 192.5,240.5C 194.5,240.5 196.5,240.5 198.5,240.5 Z"/></g>
<g><path style="opacity:0.924" fill="#f2c950" d="M 249.5,212.5 C 250.222,212.918 250.722,213.584 251,214.5C 251.5,220.825 251.666,227.158 251.5,233.5C 250.833,227.833 250.167,222.167 249.5,216.5C 249.5,215.167 249.5,213.833 249.5,212.5 Z"/></g>
<g><path style="opacity:0.261" fill="#feec9d" d="M 360.5,219.5 C 359.936,226.979 359.269,234.313 358.5,241.5C 358.5,235.167 358.5,228.833 358.5,222.5C 358.932,221.29 359.599,220.29 360.5,219.5 Z"/></g>
<g><path style="opacity:0.749" fill="#f7e294" d="M 467.5,223.5 C 469.773,223.957 471.106,225.29 471.5,227.5C 469.659,226.598 468.326,225.264 467.5,223.5 Z"/></g>
<g><path style="opacity:1" fill="#fad364" d="M 67.5,221.5 C 68.807,223.223 68.807,225.057 67.5,227C 64.6181,227.272 61.9514,228.106 59.5,229.5C 59.5,228.167 58.8333,227.5 57.5,227.5C 57.5,225.5 58.5,224.5 60.5,224.5C 60.9704,225.693 61.9704,226.36 63.5,226.5C 66.9114,226.597 68.2447,224.93 67.5,221.5 Z"/></g>
<g><path style="opacity:1" fill="#fbc31c" d="M 340.5,222.5 C 340.833,225.833 341.167,229.167 341.5,232.5C 339.856,232.286 338.356,232.62 337,233.5C 336.536,232.906 336.369,232.239 336.5,231.5C 336.89,227.861 335.89,224.695 333.5,222C 328.765,221.061 324.098,220.061 319.5,219C 323.179,218.974 326.512,218.14 329.5,216.5C 331.435,215.85 333.435,215.517 335.5,215.5C 335.604,218.939 337.27,221.272 340.5,222.5 Z"/></g>
<g><path style="opacity:0.945" fill="#f5d679" d="M 452.5,226.5 C 455.855,226.69 458.855,227.69 461.5,229.5C 458.084,229.472 455.084,228.472 452.5,226.5 Z"/></g>
<g><path style="opacity:1" fill="#f9c528" d="M 81.5,225.5 C 77.1734,230.828 72.8401,236.161 68.5,241.5C 67.8333,241.5 67.1667,241.5 66.5,241.5C 66.7863,239.723 67.4529,238.056 68.5,236.5C 68.1667,235.833 67.8333,235.167 67.5,234.5C 65.9291,235.309 64.2624,235.643 62.5,235.5C 63.1667,234.833 63.8333,234.167 64.5,233.5C 66.2143,232.262 68.2143,231.595 70.5,231.5C 73.6059,228.799 76.6059,225.965 79.5,223C 81.0613,222.812 81.728,223.645 81.5,225.5 Z"/></g>
<g><path style="opacity:0.758" fill="#f0d47c" d="M 268.5,213.5 C 267.596,212.791 267.263,211.791 267.5,210.5C 265.5,210.5 263.5,210.5 261.5,210.5C 261.5,220.833 261.5,231.167 261.5,241.5C 260.506,231.013 260.172,220.346 260.5,209.5C 263.167,209.5 265.833,209.5 268.5,209.5C 268.5,210.833 268.5,212.167 268.5,213.5 Z"/></g>
<g><path style="opacity:0.796" fill="#fcd882" d="M 319.5,224.5 C 319.5,227.167 319.5,229.833 319.5,232.5C 318.833,232.5 318.5,232.167 318.5,231.5C 318.198,228.941 318.532,226.607 319.5,224.5 Z"/></g>
<g><path style="opacity:0.994" fill="#edc342" d="M 357.5,212.5 C 355.958,211.699 354.292,211.366 352.5,211.5C 352.5,221.167 352.5,230.833 352.5,240.5C 353.833,240.5 355.167,240.5 356.5,240.5C 357.167,234.5 357.833,228.5 358.5,222.5C 358.5,228.833 358.5,235.167 358.5,241.5C 356.5,241.5 354.5,241.5 352.5,241.5C 351.506,231.347 351.172,221.014 351.5,210.5C 354.082,210.025 356.082,210.692 357.5,212.5 Z"/></g>
<g><path style="opacity:0.851" fill="#fade7a" d="M 71.5,228.5 C 70.8902,229.391 70.5569,230.391 70.5,231.5C 68.2143,231.595 66.2143,232.262 64.5,233.5C 63.8333,233.5 63.1667,233.5 62.5,233.5C 65.2991,231.597 68.2991,229.931 71.5,228.5 Z"/></g>
<g><path style="opacity:0.749" fill="#f8e39a" d="M 143.5,232.5 C 142.391,232.443 141.391,232.11 140.5,231.5C 140.265,230.903 139.765,230.57 139,230.5C 137.697,230.978 136.531,231.645 135.5,232.5C 136.031,230.456 137.198,228.789 139,227.5C 140.707,229.037 142.207,230.704 143.5,232.5 Z"/></g>
<g><path style="opacity:1" fill="#fcc319" d="M 325.5,236.5 C 326.833,236.5 328.167,236.5 329.5,236.5C 330.234,237.708 330.567,239.041 330.5,240.5C 324.5,240.5 318.5,240.5 312.5,240.5C 312.334,236.486 312.501,232.486 313,228.5C 313.333,230.167 313.667,231.833 314,233.5C 315.385,234.551 316.385,235.884 317,237.5C 319.719,236.556 322.552,236.223 325.5,236.5 Z"/></g>
<g><path style="opacity:1" fill="#f8cb46" d="M 43.5,228.5 C 42.8911,232.436 41.8911,236.269 40.5,240C 40.8333,240.833 41.1667,241.667 41.5,242.5C 43.5725,240.432 45.2392,238.099 46.5,235.5C 47.2674,234.828 47.9341,233.995 48.5,233C 52.4092,232.88 55.0758,231.047 56.5,227.5C 56.8333,227.5 57.1667,227.5 57.5,227.5C 58.8333,227.5 59.5,228.167 59.5,229.5C 59.5,229.833 59.5,230.167 59.5,230.5C 57.4885,231.341 56.1552,232.841 55.5,235C 57.5348,235.599 59.2015,235.099 60.5,233.5C 61.1667,233.5 61.8333,233.5 62.5,233.5C 63.1667,233.5 63.8333,233.5 64.5,233.5C 63.8333,234.167 63.1667,234.833 62.5,235.5C 61.209,235.263 60.209,235.596 59.5,236.5C 57.5454,237.323 55.5454,237.49 53.5,237C 52.8448,235.513 51.8448,234.347 50.5,233.5C 48.7498,236.667 46.7498,239.667 44.5,242.5C 42.0034,244.871 39.0034,245.871 35.5,245.5C 35.7373,246.791 35.404,247.791 34.5,248.5C 36.4812,243.041 37.9812,237.375 39,231.5C 40.0804,229.004 41.4138,226.67 43,224.5C 43.49,225.793 43.6567,227.127 43.5,228.5 Z"/></g>
<g><path style="opacity:0.501" fill="#fee182" d="M 59.5,230.5 C 59.5858,231.496 59.2524,232.329 58.5,233C 59.0944,233.464 59.7611,233.631 60.5,233.5C 59.2015,235.099 57.5348,235.599 55.5,235C 56.1552,232.841 57.4885,231.341 59.5,230.5 Z"/></g>
<g><path style="opacity:1" fill="#f8df8c" d="M 334.5,225.5 C 335.461,227.265 335.795,229.265 335.5,231.5C 335.5,232.833 334.833,233.5 333.5,233.5C 334.265,230.904 334.599,228.237 334.5,225.5 Z"/></g>
<g><path style="opacity:0.549" fill="#fadc7d" d="M 101.5,209.5 C 99.8008,209.34 98.1341,209.506 96.5,210C 95.7476,210.671 95.4142,211.504 95.5,212.5C 89.2309,217.461 84.2309,223.461 80.5,230.5C 76.5259,234.138 72.5259,237.805 68.5,241.5C 72.8401,236.161 77.1734,230.828 81.5,225.5C 86.3436,219.726 91.3436,213.892 96.5,208C 98.5348,207.401 100.201,207.901 101.5,209.5 Z"/></g>
<g><path style="opacity:0.973" fill="#f3cf61" d="M 140.5,231.5 C 138.405,231.76 137.072,232.926 136.5,235C 137.315,236.643 138.315,238.143 139.5,239.5C 137.284,238.797 135.451,237.464 134,235.5C 133.415,234.002 133.915,233.002 135.5,232.5C 136.531,231.645 137.697,230.978 139,230.5C 139.765,230.57 140.265,230.903 140.5,231.5 Z"/></g>
<g><path style="opacity:1" fill="#fac31d" d="M 249.5,216.5 C 250.167,222.167 250.833,227.833 251.5,233.5C 251.821,235.048 252.821,235.715 254.5,235.5C 254.5,237.167 254.5,238.833 254.5,240.5C 250.383,241.041 247.049,239.708 244.5,236.5C 244.564,233.098 244.231,229.765 243.5,226.5C 243.279,225.265 242.612,224.265 241.5,223.5C 242.602,222.824 243.602,222.158 244.5,221.5C 245.5,221.5 246.5,221.5 247.5,221.5C 247.338,219.473 247.505,217.473 248,215.5C 248.383,216.056 248.883,216.389 249.5,216.5 Z"/></g>
<g><path style="opacity:1" fill="#f3d15e" d="M 164.5,222.5 C 165.222,222.918 165.722,223.584 166,224.5C 166.667,227.5 166.667,230.5 166,233.5C 165.434,236.229 163.934,238.229 161.5,239.5C 163.252,235.507 164.252,231.174 164.5,226.5C 164.5,225.167 164.5,223.833 164.5,222.5 Z"/></g>
<g><path style="opacity:0.182" fill="#fce999" d="M 402.5,233.5 C 405.054,234.388 407.721,234.721 410.5,234.5C 409.081,235.451 407.415,235.784 405.5,235.5C 403.821,235.715 402.821,235.048 402.5,233.5 Z"/></g>
<g><path style="opacity:0.702" fill="#f5df90" d="M 453.5,232.5 C 450.873,232.293 449.207,233.46 448.5,236C 449.866,238.239 451.533,240.073 453.5,241.5C 445.813,239.622 444.813,236.122 450.5,231C 451.998,230.415 452.998,230.915 453.5,232.5 Z"/></g>
<g><path style="opacity:0.99" fill="#f4d065" d="M 294.5,232.5 C 294.833,232.5 295.167,232.5 295.5,232.5C 297.218,234.796 299.385,235.129 302,233.5C 303.03,233.836 303.53,234.503 303.5,235.5C 303.5,237.5 303.5,239.5 303.5,241.5C 299.699,242.715 296.033,242.715 292.5,241.5C 295.86,241.384 299.193,241.051 302.5,240.5C 302.5,239.167 302.5,237.833 302.5,236.5C 300.076,236.808 297.743,236.474 295.5,235.5C 294.873,234.583 294.539,233.583 294.5,232.5 Z"/></g>
<g><path style="opacity:1" fill="#f4ce64" d="M 319.5,233.5 C 324.135,234.778 328.802,234.778 333.5,233.5C 332.738,235.262 331.404,236.262 329.5,236.5C 328.167,236.5 326.833,236.5 325.5,236.5C 323.156,236.06 321.156,235.06 319.5,233.5 Z"/></g>
<g><path style="opacity:1" fill="#fac31d" d="M 140.5,231.5 C 141.391,232.11 142.391,232.443 143.5,232.5C 143.511,234.017 144.177,235.184 145.5,236C 147.9,236.186 150.234,236.686 152.5,237.5C 151.45,239.873 149.617,240.873 147,240.5C 144.502,240.083 142.002,239.749 139.5,239.5C 138.315,238.143 137.315,236.643 136.5,235C 137.072,232.926 138.405,231.76 140.5,231.5 Z"/></g>
<g><path style="opacity:0.996" fill="#f9c62e" d="M 470.5,236.5 C 469.365,238.213 467.698,238.88 465.5,238.5C 465.5,239.5 465.5,240.5 465.5,241.5C 461.601,242.791 457.601,242.791 453.5,241.5C 451.533,240.073 449.866,238.239 448.5,236C 449.207,233.46 450.873,232.293 453.5,232.5C 456.972,235.669 460.638,236.002 464.5,233.5C 465.792,231.205 465.126,229.372 462.5,228C 463.047,227.075 463.713,226.242 464.5,225.5C 465.85,226.95 467.516,227.617 469.5,227.5C 470.159,230.455 470.492,233.455 470.5,236.5 Z"/></g>
<g><path style="opacity:1" fill="#fac21d" d="M 239.5,226.5 C 239.5,226.833 239.5,227.167 239.5,227.5C 237.219,227.077 235.552,227.744 234.5,229.5C 233.307,229.97 232.64,230.97 232.5,232.5C 233.735,235.949 236.068,238.449 239.5,240C 231.809,242.161 227.476,239.327 226.5,231.5C 226.728,229.793 227.062,228.126 227.5,226.5C 230.406,226.084 233.239,225.418 236,224.5C 237.681,224.608 238.848,225.275 239.5,226.5 Z"/></g>
<g><path style="opacity:1" fill="#f8c732" d="M 340.5,222.5 C 341.167,222.833 341.833,223.167 342.5,223.5C 344.569,226.602 344.903,229.936 343.5,233.5C 341.661,234.508 340.328,236.008 339.5,238C 335.575,238.234 332.575,239.068 330.5,240.5C 330.567,239.041 330.234,237.708 329.5,236.5C 331.404,236.262 332.738,235.262 333.5,233.5C 334.833,233.5 335.5,232.833 335.5,231.5C 335.833,231.5 336.167,231.5 336.5,231.5C 336.369,232.239 336.536,232.906 337,233.5C 338.356,232.62 339.856,232.286 341.5,232.5C 341.167,229.167 340.833,225.833 340.5,222.5 Z"/></g>
<g><path style="opacity:0.047" fill="#fef9d6" d="M 37.5,230.5 C 37.6488,233.607 37.1488,236.607 36,239.5C 33.3502,245.64 30.5168,251.807 27.5,258C 27.5699,258.765 27.9033,259.265 28.5,259.5C 30.5,259.5 32.5,259.5 34.5,259.5C 44.1667,259.5 53.8333,259.5 63.5,259.5C 65.8333,259.5 68.1667,259.5 70.5,259.5C 70.5,259.833 70.5,260.167 70.5,260.5C 55.1667,260.5 39.8333,260.5 24.5,260.5C 28.5401,250.286 32.8734,240.286 37.5,230.5 Z"/></g>
<g><path style="opacity:1" fill="#fbc41a" d="M 59.5,236.5 C 58.5169,237.85 57.1836,238.85 55.5,239.5C 53.7966,241.507 53.4633,243.507 54.5,245.5C 52.1488,247.203 49.4822,247.703 46.5,247C 44.9632,245.89 44.2965,244.39 44.5,242.5C 46.7498,239.667 48.7498,236.667 50.5,233.5C 51.8448,234.347 52.8448,235.513 53.5,237C 55.5454,237.49 57.5454,237.323 59.5,236.5 Z"/></g>
<g><path style="opacity:1" fill="#fcc31b" d="M 66.5,241.5 C 65.9423,242.79 64.9423,243.623 63.5,244C 60.4133,244.259 57.4133,244.759 54.5,245.5C 53.4633,243.507 53.7966,241.507 55.5,239.5C 57.1836,238.85 58.5169,237.85 59.5,236.5C 60.209,235.596 61.209,235.263 62.5,235.5C 64.2624,235.643 65.9291,235.309 67.5,234.5C 67.8333,235.167 68.1667,235.833 68.5,236.5C 67.4529,238.056 66.7863,239.723 66.5,241.5 Z"/></g>
<g><path style="opacity:1" fill="#f6cb52" d="M 157.5,230.5 C 157.5,232.167 157.5,233.833 157.5,235.5C 156.167,235.5 154.833,235.5 153.5,235.5C 153.215,237.288 153.548,238.955 154.5,240.5C 156.747,239.626 159.08,239.292 161.5,239.5C 158.32,241.867 154.653,242.867 150.5,242.5C 146.347,242.867 142.68,241.867 139.5,239.5C 142.002,239.749 144.502,240.083 147,240.5C 149.617,240.873 151.45,239.873 152.5,237.5C 150.234,236.686 147.9,236.186 145.5,236C 144.177,235.184 143.511,234.017 143.5,232.5C 147.467,234.6 151.467,234.767 155.5,233C 156.066,232.005 156.733,231.172 157.5,230.5 Z"/></g>
<g><path style="opacity:1" fill="#f6d15e" d="M 227.5,226.5 C 227.062,228.126 226.728,229.793 226.5,231.5C 227.476,239.327 231.809,242.161 239.5,240C 236.068,238.449 233.735,235.949 232.5,232.5C 232.64,230.97 233.307,229.97 234.5,229.5C 233.267,234.429 235.267,236.262 240.5,235C 242.747,233.005 243.747,230.505 243.5,227.5C 242.167,227.5 240.833,227.5 239.5,227.5C 239.5,227.167 239.5,226.833 239.5,226.5C 240.833,226.5 242.167,226.5 243.5,226.5C 244.231,229.765 244.564,233.098 244.5,236.5C 247.049,239.708 250.383,241.041 254.5,240.5C 254.5,238.833 254.5,237.167 254.5,235.5C 252.821,235.715 251.821,235.048 251.5,233.5C 252.708,234.234 254.041,234.567 255.5,234.5C 255.318,236.591 255.652,238.591 256.5,240.5C 251.761,243.519 247.594,242.853 244,238.5C 240.257,242.259 235.757,243.426 230.5,242C 226.878,239.935 224.878,236.768 224.5,232.5C 224.759,230.013 225.759,228.013 227.5,226.5 Z M 239.5,227.5 C 240.833,227.5 242.167,227.5 243.5,227.5C 243.747,230.505 242.747,233.005 240.5,235C 235.267,236.262 233.267,234.429 234.5,229.5C 236.403,229.204 238.07,228.537 239.5,227.5 Z"/></g>
<g><path style="opacity:0.702" fill="#f9eb9e" d="M 239.5,227.5 C 238.07,228.537 236.403,229.204 234.5,229.5C 235.552,227.744 237.219,227.077 239.5,227.5 Z"/></g>
<g><path style="opacity:0.973" fill="#efe1a1" d="M 303.5,235.5 C 304.339,236.641 305.006,237.974 305.5,239.5C 305.145,240.522 304.478,241.189 303.5,241.5C 303.5,239.5 303.5,237.5 303.5,235.5 Z"/></g>
<g><path style="opacity:1" fill="#f4d161" d="M 343.5,233.5 C 342.752,237.417 340.418,239.917 336.5,241C 328.507,241.5 320.507,241.666 312.5,241.5C 312.5,241.167 312.5,240.833 312.5,240.5C 318.5,240.5 324.5,240.5 330.5,240.5C 332.575,239.068 335.575,238.234 339.5,238C 340.328,236.008 341.661,234.508 343.5,233.5 Z"/></g>
<g><path style="opacity:0.996" fill="#f6d36a" d="M 394.5,237.5 C 398.048,239.52 401.881,240.52 406,240.5C 409.542,239.887 413.042,239.22 416.5,238.5C 417.23,232.542 415.23,231.208 410.5,234.5C 413.709,229.523 417.043,229.689 420.5,235C 415.893,241.651 409.559,243.984 401.5,242C 398.453,241.484 396.12,239.984 394.5,237.5 Z"/></g>
<g><path style="opacity:1" fill="#f8d56d" d="M 470.5,236.5 C 470.833,236.5 471.167,236.5 471.5,236.5C 470.732,239.562 468.732,241.228 465.5,241.5C 465.5,240.5 465.5,239.5 465.5,238.5C 467.698,238.88 469.365,238.213 470.5,236.5 Z"/></g>
<g><path style="opacity:0.114" fill="#fff8d5" d="M 80.5,230.5 C 76.788,236.72 72.1213,242.22 66.5,247C 65.552,247.483 64.552,247.649 63.5,247.5C 63.5,247.167 63.5,246.833 63.5,246.5C 65.3603,245.061 67.027,243.395 68.5,241.5C 72.5259,237.805 76.5259,234.138 80.5,230.5 Z"/></g>
<g><path style="opacity:1" fill="#f8c62c" d="M 66.5,241.5 C 67.1667,241.5 67.8333,241.5 68.5,241.5C 67.027,243.395 65.3603,245.061 63.5,246.5C 56.3972,247.81 49.3972,249.643 42.5,252C 41.944,252.383 41.6107,252.883 41.5,253.5C 39.9382,253.733 38.6049,254.4 37.5,255.5C 36.4655,256.791 35.4655,258.124 34.5,259.5C 32.5,259.5 30.5,259.5 28.5,259.5C 30.264,255.634 32.264,251.967 34.5,248.5C 35.404,247.791 35.7373,246.791 35.5,245.5C 39.0034,245.871 42.0034,244.871 44.5,242.5C 44.2965,244.39 44.9632,245.89 46.5,247C 49.4822,247.703 52.1488,247.203 54.5,245.5C 57.4133,244.759 60.4133,244.259 63.5,244C 64.9423,243.623 65.9423,242.79 66.5,241.5 Z"/></g>
<g><path style="opacity:0.561" fill="#fce28b" d="M 63.5,246.5 C 63.5,246.833 63.5,247.167 63.5,247.5C 63.1667,247.5 62.8333,247.5 62.5,247.5C 55.727,250.242 48.727,252.242 41.5,253.5C 41.6107,252.883 41.944,252.383 42.5,252C 49.3972,249.643 56.3972,247.81 63.5,246.5 Z"/></g>
<g><path style="opacity:0.105" fill="#fdf8de" d="M 62.5,247.5 C 61.9423,248.79 60.9423,249.623 59.5,250C 53.6914,251.744 48.0247,253.744 42.5,256C 56.5,256.333 70.5,256.667 84.5,257C 85.624,257.249 86.624,257.749 87.5,258.5C 82.001,260.283 76.3343,260.95 70.5,260.5C 70.5,260.167 70.5,259.833 70.5,259.5C 73.5719,259.817 76.5719,259.484 79.5,258.5C 74.2079,257.505 68.8746,257.172 63.5,257.5C 54.4355,258.136 45.7688,257.47 37.5,255.5C 38.6049,254.4 39.9382,253.733 41.5,253.5C 48.727,252.242 55.727,250.242 62.5,247.5 Z"/></g>
<g><path style="opacity:0.855" fill="#f2d782" d="M 37.5,255.5 C 45.7688,257.47 54.4355,258.136 63.5,257.5C 63.5,258.167 63.5,258.833 63.5,259.5C 53.8333,259.5 44.1667,259.5 34.5,259.5C 35.4655,258.124 36.4655,256.791 37.5,255.5 Z"/></g>
<g><path style="opacity:0.749" fill="#f6e4ae" d="M 63.5,257.5 C 68.8746,257.172 74.2079,257.505 79.5,258.5C 76.5719,259.484 73.5719,259.817 70.5,259.5C 68.1667,259.5 65.8333,259.5 63.5,259.5C 63.5,258.833 63.5,258.167 63.5,257.5 Z"/></g>
</svg>
